<svg width="40" height="40" viewBox="0 0 40 40" fill="none" xmlns="http://www.w3.org/2000/svg">
<rect width="40" height="40" rx="20" fill="white"/>
<path d="M9 20C9 13.9249 13.9249 9 20 9C26.0751 9 31 13.9249 31 20C31 26.0751 26.0751 31 20 31C13.9249 31 9 26.0751 9 20Z" fill="white"/>
<path d="M26.5521 13.8127H13.8905L12.8087 11.8735C12.6873 11.6559 12.4576 11.521 12.2083 11.521H10.8333C10.4536 11.521 10.1458 11.8288 10.1458 12.2085C10.1458 12.5882 10.4536 12.896 10.8333 12.896H11.8046L12.8723 14.8097L15.3345 20.2576L15.337 20.2632L15.5539 20.743L13.0818 23.38C12.904 23.5696 12.8484 23.8432 12.938 24.0871C13.0276 24.3311 13.2471 24.5037 13.5053 24.5332L15.7586 24.7907C18.577 25.1128 21.423 25.1128 24.2415 24.7907L26.4947 24.5332C26.872 24.4901 27.1428 24.1493 27.0997 23.7721C27.0566 23.3949 26.7159 23.124 26.3386 23.1671L24.0853 23.4246C21.3706 23.7349 18.6294 23.7349 15.9147 23.4246L15.0205 23.3224L16.8349 21.387C16.8525 21.3683 16.8688 21.3489 16.8838 21.3288L17.5739 21.4186C18.5409 21.5444 19.5184 21.5691 20.4905 21.4922C22.7579 21.3129 24.8593 20.234 26.3263 18.496L26.8562 17.8682C26.874 17.8471 26.8905 17.825 26.9057 17.8019L27.8933 16.2969C28.5933 15.2301 27.828 13.8127 26.5521 13.8127Z" fill="#4E2805"/>
<path d="M14.9583 25.9585C14.1989 25.9585 13.5833 26.5741 13.5833 27.3335C13.5833 28.0929 14.1989 28.7085 14.9583 28.7085C15.7177 28.7085 16.3333 28.0929 16.3333 27.3335C16.3333 26.5741 15.7177 25.9585 14.9583 25.9585Z" fill="#4E2805"/>
<path d="M23.6667 27.3335C23.6667 26.5741 24.2823 25.9585 25.0417 25.9585C25.8011 25.9585 26.4167 26.5741 26.4167 27.3335C26.4167 28.0929 25.8011 28.7085 25.0417 28.7085C24.2823 28.7085 23.6667 28.0929 23.6667 27.3335Z" fill="#4E2805"/>
</svg>
