<svg width="36" height="36" viewBox="0 0 36 36" fill="none" xmlns="http://www.w3.org/2000/svg">
<rect width="36" height="36" rx="18" fill="white"/>
<path d="M7 18C7 11.9249 11.9249 7 18 7C24.0751 7 29 11.9249 29 18C29 24.0751 24.0751 29 18 29C11.9249 29 7 24.0751 7 18Z" fill="white"/>
<path d="M20.0167 9.6355C18.8923 9.6355 17.8139 10.0822 17.0188 10.8772C16.2238 11.6723 15.7771 12.7507 15.7771 13.8751V16.2355H13.5083C13.3944 16.2355 13.3021 16.3278 13.3021 16.4417V19.5584C13.3021 19.6723 13.3944 19.7647 13.5083 19.7647H15.7771V26.1584C15.7771 26.2723 15.8694 26.3647 15.9833 26.3647H19.1C19.2139 26.3647 19.3063 26.2723 19.3063 26.1584V19.7647H21.5951C21.6897 19.7647 21.7722 19.7003 21.7952 19.6084L22.5744 16.4918C22.6069 16.3616 22.5084 16.2355 22.3743 16.2355H19.3063V13.8751C19.3063 13.6867 19.3811 13.506 19.5143 13.3727C19.6476 13.2395 19.8283 13.1647 20.0167 13.1647H22.4C22.5139 13.1647 22.6063 13.0723 22.6063 12.9584V9.84175C22.6063 9.72784 22.5139 9.6355 22.4 9.6355H20.0167Z" fill="#4E2805"/>
</svg>
