<svg width="36" height="36" viewBox="0 0 36 36" fill="none" xmlns="http://www.w3.org/2000/svg">
<rect width="36" height="36" rx="18" fill="white"/>
<path d="M7 18C7 11.9249 11.9249 7 18 7C24.0751 7 29 11.9249 29 18C29 24.0751 24.0751 29 18 29C11.9249 29 7 24.0751 7 18Z" fill="white"/>
<path d="M18 15.0209C16.3546 15.0209 15.0208 16.3547 15.0208 18.0001C15.0208 19.6454 16.3546 20.9792 18 20.9792C19.6453 20.9792 20.9792 19.6454 20.9792 18.0001C20.9792 16.3547 19.6453 15.0209 18 15.0209Z" fill="#4E2805"/>
<path fill-rule="evenodd" clip-rule="evenodd" d="M13.2054 9.82476C16.3662 9.4715 19.6338 9.4715 22.7946 9.82476C24.5348 10.0193 25.9384 11.3904 26.1426 13.1367C26.5206 16.3679 26.5206 19.6322 26.1426 22.8635C25.9384 24.6098 24.5348 25.9809 22.7946 26.1754C19.6338 26.5287 16.3662 26.5287 13.2054 26.1754C11.4652 25.9809 10.0616 24.6098 9.85736 22.8635C9.47943 19.6322 9.47943 16.3679 9.85736 13.1367C10.0616 11.3904 11.4652 10.0193 13.2054 9.82476ZM22.5833 12.5001C22.0771 12.5001 21.6667 12.9105 21.6667 13.4167C21.6667 13.923 22.0771 14.3334 22.5833 14.3334C23.0896 14.3334 23.5 13.923 23.5 13.4167C23.5 12.9105 23.0896 12.5001 22.5833 12.5001ZM13.6458 18.0001C13.6458 15.5953 15.5952 13.6459 18 13.6459C20.4047 13.6459 22.3542 15.5953 22.3542 18.0001C22.3542 20.4048 20.4047 22.3542 18 22.3542C15.5952 22.3542 13.6458 20.4048 13.6458 18.0001Z" fill="#4E2805"/>
</svg>
