<svg width="40" height="40" viewBox="0 0 40 40" fill="none" xmlns="http://www.w3.org/2000/svg">
<rect width="40" height="40" rx="20" fill="white"/>
<path d="M9 20C9 13.9249 13.9249 9 20 9C26.0751 9 31 13.9249 31 20C31 26.0751 26.0751 31 20 31C13.9249 31 9 26.0751 9 20Z" fill="white"/>
<path fill-rule="evenodd" clip-rule="evenodd" d="M27.1038 19.9998C27.1038 19.6201 26.796 19.3123 26.4163 19.3123H13.583C13.2033 19.3123 12.8955 19.6201 12.8955 19.9998C12.8955 20.3795 13.2033 20.6873 13.583 20.6873H26.4163C26.796 20.6873 27.1038 20.3795 27.1038 19.9998Z" fill="#4E2805"/>
<path fill-rule="evenodd" clip-rule="evenodd" d="M27.1038 15.4165C27.1038 15.0368 26.796 14.729 26.4163 14.729H13.583C13.2033 14.729 12.8955 15.0368 12.8955 15.4165C12.8955 15.7962 13.2033 16.104 13.583 16.104H26.4163C26.796 16.104 27.1038 15.7962 27.1038 15.4165Z" fill="#4E2805"/>
<path fill-rule="evenodd" clip-rule="evenodd" d="M27.1038 24.5832C27.1038 24.2035 26.796 23.8957 26.4163 23.8957H13.583C13.2033 23.8957 12.8955 24.2035 12.8955 24.5832C12.8955 24.9629 13.2033 25.2707 13.583 25.2707H26.4163C26.796 25.2707 27.1038 24.9629 27.1038 24.5832Z" fill="#4E2805"/>
</svg>
