<svg width="37" height="36" viewBox="0 0 37 36" fill="none" xmlns="http://www.w3.org/2000/svg">
<rect x="0.581055" y="0.5" width="35" height="35" rx="17.5" fill="white"/>
<path d="M4.08105 18C4.08105 10.268 10.3491 4 18.0811 4V4C25.813 4 32.0811 10.268 32.0811 18V18C32.0811 25.732 25.813 32 18.0811 32V32C10.3491 32 4.08105 25.732 4.08105 18V18Z" fill="white"/>
<path fill-rule="evenodd" clip-rule="evenodd" d="M15.7123 12.7148C16.054 12.3731 16.6081 12.3731 16.9498 12.7148L21.6164 17.3814C21.9581 17.7232 21.9581 18.2772 21.6164 18.6189L16.9498 23.2855C16.6081 23.6273 16.054 23.6273 15.7123 23.2855C15.3706 22.9438 15.3706 22.3898 15.7123 22.0481L19.7603 18.0002L15.7123 13.9522C15.3706 13.6105 15.3706 13.0565 15.7123 12.7148Z" fill="#4E2805"/>
<rect x="0.581055" y="0.5" width="35" height="35" rx="17.5" stroke="#7C6410"/>
</svg>
