<svg width="36" height="36" viewBox="0 0 36 36" fill="none" xmlns="http://www.w3.org/2000/svg">
<rect x="0.5" y="0.5" width="35" height="35" rx="17.5" fill="white"/>
<path d="M4 18C4 10.268 10.268 4 18 4V4C25.732 4 32 10.268 32 18V18C32 25.732 25.732 32 18 32V32C10.268 32 4 25.732 4 18V18Z" fill="white"/>
<path fill-rule="evenodd" clip-rule="evenodd" d="M20.3689 12.7148C20.7106 13.0565 20.7106 13.6105 20.3689 13.9522L16.3209 18.0002L20.3689 22.0481C20.7106 22.3898 20.7106 22.9438 20.3689 23.2855C20.0272 23.6273 19.4732 23.6273 19.1314 23.2855L14.4648 18.6189C14.1231 18.2772 14.1231 17.7232 14.4648 17.3814L19.1314 12.7148C19.4732 12.3731 20.0272 12.3731 20.3689 12.7148Z" fill="#4E2805"/>
<rect x="0.5" y="0.5" width="35" height="35" rx="17.5" stroke="#7C6410"/>
</svg>
