<svg width="24" height="24" viewBox="0 0 24 24" fill="none" xmlns="http://www.w3.org/2000/svg">
<rect width="24" height="24" fill="white"/>
<path fill-rule="evenodd" clip-rule="evenodd" d="M14.3851 15.4456C11.7348 17.5682 7.85537 17.4011 5.39858 14.9444C2.76254 12.3083 2.76254 8.03445 5.39858 5.39842C8.03462 2.76238 12.3085 2.76238 14.9445 5.39842C17.4013 7.8552 17.5684 11.7346 15.4457 14.3849L20.6014 19.5405C20.8943 19.8334 20.8943 20.3083 20.6014 20.6012C20.3085 20.8941 19.8336 20.8941 19.5407 20.6012L14.3851 15.4456ZM6.45924 13.8837C4.40899 11.8334 4.40899 8.50933 6.45924 6.45908C8.5095 4.40882 11.8336 4.40882 13.8839 6.45908C15.9326 8.50782 15.9341 11.8286 13.8884 13.8792C13.8869 13.8807 13.8854 13.8822 13.8838 13.8837C13.8823 13.8852 13.8808 13.8867 13.8794 13.8882C11.8287 15.9339 8.50799 15.9324 6.45924 13.8837Z" fill="#4E2805"/>
</svg>
