<svg width="36" height="36" viewBox="0 0 36 36" fill="none" xmlns="http://www.w3.org/2000/svg">
<rect width="36" height="36" rx="18" fill="white"/>
<path d="M7 18C7 11.9249 11.9249 7 18 7C24.0751 7 29 11.9249 29 18C29 24.0751 24.0751 29 18 29C11.9249 29 7 24.0751 7 18Z" fill="white"/>
<path d="M26.9923 12.7084C27.0454 12.6343 26.9669 12.5387 26.882 12.5717C26.2781 12.8057 25.6471 12.9636 25.0033 13.0415C25.7201 12.6133 26.2732 11.9614 26.5799 11.1897C26.6111 11.1111 26.5253 11.0409 26.4512 11.0818C25.7851 11.4497 25.0666 11.7146 24.3203 11.8672C24.2891 11.8736 24.2569 11.8629 24.2349 11.8398C23.6749 11.2488 22.9377 10.8554 22.134 10.7194C21.3134 10.5806 20.47 10.718 19.736 11.1102C19.0019 11.5024 18.4188 12.1271 18.0781 12.8864C17.7542 13.6083 17.6668 14.4131 17.8265 15.1859C17.8389 15.2459 17.792 15.3025 17.7309 15.2987C16.2788 15.2085 14.8601 14.8223 13.5621 14.1633C12.2674 13.506 11.1209 12.5916 10.1924 11.4764C10.1512 11.4269 10.0731 11.4334 10.0431 11.4903C9.75418 12.0386 9.60292 12.6496 9.60333 13.2706C9.60216 13.8888 9.75386 14.4977 10.0449 15.0431C10.336 15.5884 10.7574 16.0534 11.2717 16.3965C10.7263 16.3816 10.1916 16.2468 9.70531 16.0024C9.64264 15.9709 9.56746 16.0157 9.57072 16.0858C9.60864 16.9009 9.90789 17.7193 10.4259 18.3471C10.9771 19.0152 11.7421 19.4725 12.5917 19.6415C12.2646 19.741 11.9251 19.7935 11.5833 19.7973C11.3973 19.7951 11.2116 19.7814 11.0274 19.7562C10.9591 19.7469 10.9033 19.8118 10.9272 19.8764C11.1806 20.5616 11.6282 21.1595 12.2168 21.5959C12.8461 22.0625 13.6051 22.3214 14.3883 22.3365C13.0658 23.3771 11.4329 23.9451 9.75 23.9498C9.57707 23.9504 9.40423 23.9448 9.23179 23.933C9.13461 23.9264 9.08992 24.0559 9.17368 24.1056C10.8134 25.0786 12.6875 25.593 14.5992 25.5906C16.0105 25.6053 17.4107 25.3386 18.7179 24.806C20.025 24.2735 21.2129 23.4859 22.2123 22.4891C23.2116 21.4923 24.0023 20.3064 24.5382 19.0006C25.0741 17.6949 25.3444 16.2954 25.3333 14.884V14.4441C25.3333 14.4152 25.347 14.388 25.3701 14.3705C25.9919 13.9011 26.5387 13.3406 26.9923 12.7084Z" fill="#4E2805"/>
</svg>
