<svg width="36" height="36" viewBox="0 0 36 36" fill="none" xmlns="http://www.w3.org/2000/svg">
<rect width="36" height="36" rx="18" fill="white"/>
<path d="M7 18C7 11.9249 11.9249 7 18 7C24.0751 7 29 11.9249 29 18C29 24.0751 24.0751 29 18 29C11.9249 29 7 24.0751 7 18Z" fill="white"/>
<path fill-rule="evenodd" clip-rule="evenodd" d="M13.4065 11.4829C16.4642 11.2437 19.5359 11.2437 22.5936 11.4829L24.6475 11.6436C25.7916 11.7331 26.7275 12.5905 26.9167 13.7224C27.3899 16.5544 27.3899 19.4454 26.9167 22.2774C26.7275 23.4093 25.7916 24.2667 24.6475 24.3562L22.5936 24.5169C19.5359 24.7561 16.4642 24.7561 13.4065 24.5169L11.3525 24.3562C10.2084 24.2667 9.27248 23.4093 9.08336 22.2774C8.61017 19.4454 8.61017 16.5544 9.08336 13.7224C9.27248 12.5905 10.2084 11.7331 11.3525 11.6436L13.4065 11.4829ZM16.1667 20.2642V15.7356C16.1667 15.5219 16.3998 15.3898 16.5831 15.4998L20.357 17.7641C20.535 17.8709 20.535 18.1289 20.357 18.2357L16.5831 20.5C16.3998 20.61 16.1667 20.478 16.1667 20.2642Z" fill="#4E2805"/>
</svg>
