<svg width="122" height="24" viewBox="0 0 122 24" fill="none" xmlns="http://www.w3.org/2000/svg">
<g filter="url(#filter0_i_149_840)">
<path d="M21.8672 23.0215L15.8555 22.67L8.1211 11.877L5.55469 11.7012C5.55469 14.1856 5.56641 16.1309 5.58985 17.5371C5.58985 18.1465 5.60157 19.0723 5.625 20.3145C5.69532 21.1582 6.03516 21.7559 6.64454 22.1075C7.06641 22.3418 7.79297 22.5293 8.82422 22.67V22.9512H0V22.67C1.03125 22.5293 1.7461 22.3418 2.14454 22.1075C2.77735 21.7559 3.11719 21.1582 3.16407 20.3145C3.16407 20.2207 3.17578 19.4707 3.19922 18.0645C3.22266 16.1426 3.23438 14.5606 3.23438 13.3184V7.44727C3.23438 5.08008 3.22266 3.72071 3.19922 3.36915C3.10547 1.96289 2.10938 1.16602 0.210937 0.978516V0.732422C1.03125 0.732422 2.23828 0.720703 3.83204 0.697266C5.44922 0.673828 6.66797 0.662109 7.48828 0.662109C12.7618 0.662109 15.3985 2.4668 15.3985 6.07618C15.3985 8.70118 13.7579 10.5059 10.4766 11.4903C11.8594 13.3887 13.5118 15.5918 15.4336 18.0996C16.0664 18.9668 16.793 19.9278 17.6133 20.9825C18.4336 21.7325 19.8516 22.3067 21.8672 22.7051V23.0215ZM12.9375 5.90039C12.9375 2.85352 10.8868 1.33008 6.78516 1.33008H5.625L5.55469 11.1036H7.69922C9.19922 11.1036 10.4414 10.623 11.4258 9.66211C12.4336 8.67774 12.9375 7.42383 12.9375 5.90039ZM37.336 16.5528C37.336 18.4043 36.7032 19.9864 35.4375 21.2989C34.1485 22.6582 32.5782 23.3379 30.7266 23.3379C28.6641 23.3379 27.0352 22.7051 25.8399 21.4395C24.6446 20.1739 24.0469 18.5098 24.0469 16.4473C24.0469 14.5723 24.6914 12.9786 25.9805 11.666C27.293 10.3535 28.875 9.69727 30.7266 9.69727C32.7422 9.69727 34.3594 10.3301 35.5782 11.5957C36.75 12.8614 37.336 14.5137 37.336 16.5528ZM35.1211 16.4121C35.1211 14.795 34.8047 13.4239 34.1719 12.2989C33.375 10.9395 32.2266 10.2598 30.7266 10.2598C29.2969 10.2598 28.1602 10.9395 27.3164 12.2989C26.5899 13.4942 26.2266 14.8536 26.2266 16.377C26.2266 18.0645 26.5313 19.4707 27.1407 20.5957C27.9141 22.0254 29.0625 22.7403 30.586 22.7403C32.1094 22.7403 33.2813 22.0371 34.1016 20.6309C34.7813 19.459 35.1211 18.0528 35.1211 16.4121ZM63.4571 22.916H56.5313V22.5996L58.9922 22.0723C59.0625 21.2051 59.0977 20.2676 59.0977 19.2598C59.0977 18.9551 59.086 18.4981 59.0625 17.8887C59.0625 17.2793 59.0625 16.8223 59.0625 16.5176C59.0625 14.5723 58.9805 13.3418 58.8164 12.8262C58.4649 11.4903 57.586 10.8223 56.1797 10.8223C54.5391 10.8223 53.2735 11.3145 52.3829 12.2989V21.3692C52.3829 21.6036 52.4063 21.8379 52.4532 22.0723C52.9922 22.1895 53.7891 22.4004 54.8438 22.7051V22.916H47.918V22.7051L50.4493 22.1075C50.4727 20.6309 50.4844 19.8809 50.4844 19.8575C50.4844 19.5293 50.4844 19.0137 50.4844 18.3106C50.461 17.6543 50.4493 17.1504 50.4493 16.7989C50.4493 16.5645 50.461 16.2012 50.4844 15.709C50.5079 15.2168 50.5196 14.8418 50.5196 14.584C50.5196 13.4356 50.3321 12.5801 49.9571 12.0176C49.4649 11.2442 48.5977 10.8457 47.3555 10.8223C45.9493 10.7754 44.7657 11.3262 43.8047 12.4746V21.334C43.8047 21.5684 43.8164 21.8028 43.8399 22.0371C44.4493 22.1778 45.211 22.4004 46.125 22.7051V22.916H39.8672V22.7051C40.2188 22.5645 40.8985 22.377 41.9063 22.1426C41.9063 22.0489 41.918 21.8731 41.9414 21.6153C41.9414 21.3575 41.9414 21.1582 41.9414 21.0176V13.2129C41.9414 12.2754 41.4024 11.7481 40.3243 11.6309V11.42C41.8243 10.9512 42.961 10.2129 43.7344 9.20508H43.875L43.7696 12.1231C45.2696 10.5059 46.9454 9.69727 48.7969 9.69727C50.5782 9.69727 51.7149 10.4941 52.2071 12.0879C53.5196 10.4941 55.2071 9.69727 57.2696 9.69727C59.754 9.69727 60.9961 11.1036 60.9961 13.916C60.9961 14.7364 60.9961 15.9786 60.9961 17.6426C60.9727 19.3067 60.961 20.5371 60.961 21.334C60.961 21.6153 60.9727 21.8496 60.9961 22.0371C61.5352 22.1778 62.3555 22.4004 63.4571 22.7051V22.916ZM77.4141 20.3848C77.3672 21.2051 77.086 21.8731 76.5704 22.3887C76.0782 22.9043 75.4219 23.1621 74.6016 23.1621C73.5 23.1621 72.75 22.459 72.3516 21.0528C70.7579 22.4825 69.211 23.1973 67.711 23.1973C66.5625 23.1973 65.9883 22.541 65.9883 21.2286C65.9883 19.166 68.1914 17.4082 72.5977 15.9551C72.6211 15.041 72.6329 13.752 72.6329 12.0879C72.6329 11.6426 72.4336 11.2559 72.0352 10.9278C71.6602 10.5996 71.2383 10.4355 70.7696 10.4355C69.9493 10.4355 69.2813 10.7637 68.7657 11.42C68.2735 11.959 67.9688 12.6621 67.8516 13.5293H66.129C66.3399 12.4278 67.043 11.4903 68.2383 10.7168C69.3868 10.0371 70.5469 9.69727 71.7188 9.69727C72.5157 9.69727 73.1954 9.94336 73.7579 10.4355C74.3204 10.9746 74.6016 11.6192 74.6016 12.3692C74.6016 13.2129 74.5547 14.4668 74.461 16.1309C74.3672 17.8184 74.3204 19.0723 74.3204 19.8926C74.3204 21.041 74.7305 21.6153 75.5508 21.6153C76.3008 21.6153 76.8282 21.1817 77.1329 20.3145L77.4141 20.3848ZM72.5625 16.3067C69.5391 17.877 68.0274 19.2364 68.0274 20.3848C68.0274 21.3457 68.5079 21.8262 69.4688 21.8262C70.1485 21.8262 70.7696 21.6739 71.3321 21.3692C71.9649 21.041 72.3164 20.5723 72.3868 19.9629C72.3868 19.8926 72.4454 18.6739 72.5625 16.3067ZM94.1485 22.916H87.6094V22.6348L90.0352 22.1075C90.0352 21.6387 90.0469 20.877 90.0704 19.8223C90.0704 18.8145 90.0704 18.0528 90.0704 17.5371C90.0704 15.9434 90.0586 14.795 90.0352 14.0918C89.9649 11.9121 88.875 10.8223 86.7657 10.8223C85.1016 10.8223 83.8125 11.3848 82.8985 12.5098V21.0879C82.8985 21.2051 82.9219 21.5332 82.9688 22.0723C83.5079 22.1895 84.293 22.4004 85.3243 22.7051V22.916H79.2071V22.7051C79.7696 22.4942 80.3672 22.3301 81 22.2129C81 22.0957 81.0118 21.9082 81.0352 21.6504C81.0352 21.3692 81.0352 21.1582 81.0352 21.0176V13.3536C81.0352 12.9082 80.8829 12.4981 80.5782 12.1231C80.2266 11.7715 79.8282 11.5957 79.3829 11.5957V11.42C80.7422 10.9981 81.8204 10.2715 82.6172 9.24024H82.8633V12.1582C84.3868 10.5176 86.1094 9.69727 88.0313 9.69727C90.6563 9.69727 91.9688 11.1621 91.9688 14.0918V21.334C91.9688 21.545 91.9922 21.791 92.0391 22.0723C92.836 22.2832 93.5391 22.4942 94.1485 22.7051V22.916ZM107.613 19.4707C107.332 20.666 106.734 21.5918 105.82 22.2481C104.906 22.9278 103.828 23.2676 102.586 23.2676C100.711 23.2676 99.2344 22.541 98.1563 21.0879C97.1485 19.7754 96.6446 18.1582 96.6446 16.2364C96.6446 14.502 97.2774 12.9786 98.543 11.666C99.8321 10.377 101.32 9.73243 103.008 9.73243C104.883 9.73243 106.16 10.166 106.84 11.0332C107.051 11.3145 107.156 11.5723 107.156 11.8067C107.156 12.4629 106.851 12.791 106.242 12.791C105.82 12.791 105.316 12.3926 104.73 11.5957C104.168 10.7754 103.535 10.3652 102.832 10.3652C102.316 10.3652 101.777 10.4824 101.215 10.7168C99.3868 11.5606 98.4727 13.3184 98.4727 15.9903C98.4727 17.5137 98.9063 18.8028 99.7735 19.8575C100.711 21.0059 101.93 21.5801 103.43 21.5801C105.305 21.5801 106.64 20.8536 107.437 19.4004L107.613 19.4707ZM121.535 13.5293C121.535 13.7403 121.453 13.8457 121.289 13.8457C119.789 13.8457 116.871 13.8223 112.535 13.7754C112.371 14.3848 112.289 15.0528 112.289 15.7793C112.289 17.42 112.699 18.7676 113.519 19.8223C114.433 20.9942 115.687 21.5801 117.281 21.5801C119.133 21.5801 120.469 20.8536 121.289 19.4004L121.465 19.4707C121.207 20.6426 120.609 21.5684 119.672 22.2481C118.734 22.9278 117.644 23.2676 116.402 23.2676C114.715 23.2676 113.285 22.5645 112.113 21.1582C111.035 19.8457 110.496 18.3223 110.496 16.5879C110.496 14.7598 111.023 13.1895 112.078 11.877C113.226 10.4473 114.691 9.73243 116.472 9.73243C118.676 9.73243 120.222 10.5645 121.113 12.2286C121.394 12.791 121.535 13.2246 121.535 13.5293ZM119.39 12.1934C119.39 11.6543 119.109 11.1856 118.547 10.7871C118.031 10.4355 117.492 10.2598 116.93 10.2598C115.008 10.2598 113.601 11.2676 112.711 13.2832L119.144 13.1075C119.308 12.8965 119.39 12.5918 119.39 12.1934Z" fill="#7C6410"/>
</g>
<defs>
<filter id="filter0_i_149_840" x="0" y="0.662109" width="122.535" height="23.6758" filterUnits="userSpaceOnUse" color-interpolation-filters="sRGB">
<feFlood flood-opacity="0" result="BackgroundImageFix"/>
<feBlend mode="normal" in="SourceGraphic" in2="BackgroundImageFix" result="shape"/>
<feColorMatrix in="SourceAlpha" type="matrix" values="0 0 0 0 0 0 0 0 0 0 0 0 0 0 0 0 0 0 127 0" result="hardAlpha"/>
<feOffset dx="1" dy="1"/>
<feGaussianBlur stdDeviation="2"/>
<feComposite in2="hardAlpha" operator="arithmetic" k2="-1" k3="1"/>
<feColorMatrix type="matrix" values="0 0 0 0 0.4875 0 0 0 0 0.393656 0 0 0 0 0.0609375 0 0 0 0.1 0"/>
<feBlend mode="normal" in2="shape" result="effect1_innerShadow_149_840"/>
</filter>
</defs>
</svg>
