<svg width="222" height="30" viewBox="0 0 222 30" fill="none" xmlns="http://www.w3.org/2000/svg">
<g filter="url(#filter0_i_92_685)">
<path d="M21.8672 23.25L15.8555 22.8985L8.1211 12.1055L5.55469 11.9297C5.55469 14.4141 5.56641 16.3594 5.58985 17.7656C5.58985 18.375 5.60157 19.3008 5.625 20.543C5.69532 21.3867 6.03516 21.9844 6.64454 22.336C7.06641 22.5703 7.79297 22.7578 8.82422 22.8985V23.1797H0V22.8985C1.03125 22.7578 1.7461 22.5703 2.14454 22.336C2.77735 21.9844 3.11719 21.3867 3.16407 20.543C3.16407 20.4492 3.17578 19.6992 3.19922 18.293C3.22266 16.3711 3.23438 14.7891 3.23438 13.5469V7.67578C3.23438 5.30859 3.22266 3.94922 3.19922 3.59766C3.10547 2.1914 2.10938 1.39453 0.210937 1.20703V0.960937C1.03125 0.960937 2.23828 0.949219 3.83204 0.925781C5.44922 0.902344 6.66797 0.890625 7.48828 0.890625C12.7618 0.890625 15.3985 2.69531 15.3985 6.30469C15.3985 8.92969 13.7579 10.7344 10.4766 11.7188C11.8594 13.6172 13.5118 15.8203 15.4336 18.3281C16.0664 19.1953 16.793 20.1563 17.6133 21.211C18.4336 21.961 19.8516 22.5352 21.8672 22.9336V23.25ZM12.9375 6.1289C12.9375 3.08203 10.8868 1.55859 6.78516 1.55859H5.625L5.55469 11.3321H7.69922C9.19922 11.3321 10.4414 10.8516 11.4258 9.89062C12.4336 8.90625 12.9375 7.65234 12.9375 6.1289ZM37.336 16.7813C37.336 18.6328 36.7032 20.2149 35.4375 21.5274C34.1485 22.8867 32.5782 23.5664 30.7266 23.5664C28.6641 23.5664 27.0352 22.9336 25.8399 21.668C24.6446 20.4024 24.0469 18.7383 24.0469 16.6758C24.0469 14.8008 24.6914 13.2071 25.9805 11.8945C27.293 10.582 28.875 9.92578 30.7266 9.92578C32.7422 9.92578 34.3594 10.5586 35.5782 11.8242C36.75 13.0899 37.336 14.7422 37.336 16.7813ZM35.1211 16.6406C35.1211 15.0235 34.8047 13.6524 34.1719 12.5274C33.375 11.168 32.2266 10.4883 30.7266 10.4883C29.2969 10.4883 28.1602 11.168 27.3164 12.5274C26.5899 13.7227 26.2266 15.0821 26.2266 16.6055C26.2266 18.293 26.5313 19.6992 27.1407 20.8242C27.9141 22.2539 29.0625 22.9688 30.586 22.9688C32.1094 22.9688 33.2813 22.2656 34.1016 20.8594C34.7813 19.6875 35.1211 18.2813 35.1211 16.6406ZM63.4571 23.1445H56.5313V22.8281L58.9922 22.3008C59.0625 21.4336 59.0977 20.4961 59.0977 19.4883C59.0977 19.1836 59.086 18.7266 59.0625 18.1172C59.0625 17.5078 59.0625 17.0508 59.0625 16.7461C59.0625 14.8008 58.9805 13.5703 58.8164 13.0547C58.4649 11.7188 57.586 11.0508 56.1797 11.0508C54.5391 11.0508 53.2735 11.543 52.3829 12.5274V21.5977C52.3829 21.8321 52.4063 22.0664 52.4532 22.3008C52.9922 22.418 53.7891 22.6289 54.8438 22.9336V23.1445H47.918V22.9336L50.4493 22.336C50.4727 20.8594 50.4844 20.1094 50.4844 20.086C50.4844 19.7578 50.4844 19.2422 50.4844 18.5391C50.461 17.8828 50.4493 17.3789 50.4493 17.0274C50.4493 16.793 50.461 16.4297 50.4844 15.9375C50.5079 15.4453 50.5196 15.0703 50.5196 14.8125C50.5196 13.6641 50.3321 12.8086 49.9571 12.2461C49.4649 11.4727 48.5977 11.0742 47.3555 11.0508C45.9493 11.0039 44.7657 11.5547 43.8047 12.7031V21.5625C43.8047 21.7969 43.8164 22.0313 43.8399 22.2656C44.4493 22.4063 45.211 22.6289 46.125 22.9336V23.1445H39.8672V22.9336C40.2188 22.793 40.8985 22.6055 41.9063 22.3711C41.9063 22.2774 41.918 22.1016 41.9414 21.8438C41.9414 21.586 41.9414 21.3867 41.9414 21.2461V13.4414C41.9414 12.5039 41.4024 11.9766 40.3243 11.8594V11.6485C41.8243 11.1797 42.961 10.4414 43.7344 9.43359H43.875L43.7696 12.3516C45.2696 10.7344 46.9454 9.92578 48.7969 9.92578C50.5782 9.92578 51.7149 10.7227 52.2071 12.3164C53.5196 10.7227 55.2071 9.92578 57.2696 9.92578C59.754 9.92578 60.9961 11.3321 60.9961 14.1445C60.9961 14.9649 60.9961 16.2071 60.9961 17.8711C60.9727 19.5352 60.961 20.7656 60.961 21.5625C60.961 21.8438 60.9727 22.0781 60.9961 22.2656C61.5352 22.4063 62.3555 22.6289 63.4571 22.9336V23.1445ZM77.4141 20.6133C77.3672 21.4336 77.086 22.1016 76.5704 22.6172C76.0782 23.1328 75.4219 23.3906 74.6016 23.3906C73.5 23.3906 72.75 22.6875 72.3516 21.2813C70.7579 22.711 69.211 23.4258 67.711 23.4258C66.5625 23.4258 65.9883 22.7695 65.9883 21.4571C65.9883 19.3945 68.1914 17.6367 72.5977 16.1836C72.6211 15.2695 72.6329 13.9805 72.6329 12.3164C72.6329 11.8711 72.4336 11.4844 72.0352 11.1563C71.6602 10.8281 71.2383 10.6641 70.7696 10.6641C69.9493 10.6641 69.2813 10.9922 68.7657 11.6485C68.2735 12.1875 67.9688 12.8906 67.8516 13.7578H66.129C66.3399 12.6563 67.043 11.7188 68.2383 10.9453C69.3868 10.2656 70.5469 9.92578 71.7188 9.92578C72.5157 9.92578 73.1954 10.1719 73.7579 10.6641C74.3204 11.2031 74.6016 11.8477 74.6016 12.5977C74.6016 13.4414 74.5546 14.6953 74.461 16.3594C74.3671 18.0469 74.3204 19.3008 74.3204 20.1211C74.3204 21.2695 74.7305 21.8438 75.5508 21.8438C76.3008 21.8438 76.8282 21.4102 77.1329 20.543L77.4141 20.6133ZM72.5625 16.5352C69.5391 18.1055 68.0274 19.4649 68.0274 20.6133C68.0274 21.5742 68.5079 22.0547 69.4688 22.0547C70.1485 22.0547 70.7696 21.9024 71.3321 21.5977C71.9649 21.2695 72.3164 20.8008 72.3868 20.1914C72.3868 20.1211 72.4454 18.9024 72.5625 16.5352ZM94.1485 23.1445H87.6094V22.8633L90.0352 22.336C90.0352 21.8672 90.0469 21.1055 90.0704 20.0508C90.0704 19.043 90.0704 18.2813 90.0704 17.7656C90.0704 16.1719 90.0586 15.0235 90.0352 14.3203C89.9649 12.1406 88.875 11.0508 86.7657 11.0508C85.1016 11.0508 83.8125 11.6133 82.8985 12.7383V21.3164C82.8985 21.4336 82.9219 21.7617 82.9688 22.3008C83.5079 22.418 84.293 22.6289 85.3243 22.9336V23.1445H79.2071V22.9336C79.7696 22.7227 80.3672 22.5586 81 22.4414C81 22.3242 81.0118 22.1367 81.0352 21.8789C81.0352 21.5977 81.0352 21.3867 81.0352 21.2461V13.5821C81.0352 13.1367 80.8829 12.7266 80.5782 12.3516C80.2266 12 79.8282 11.8242 79.3829 11.8242V11.6485C80.7422 11.2266 81.8204 10.5 82.6172 9.46875H82.8633V12.3867C84.3868 10.7461 86.1094 9.92578 88.0313 9.92578C90.6563 9.92578 91.9688 11.3906 91.9688 14.3203V21.5625C91.9688 21.7735 91.9922 22.0195 92.0391 22.3008C92.836 22.5117 93.5391 22.7227 94.1485 22.9336V23.1445ZM107.613 19.6992C107.332 20.8945 106.734 21.8203 105.82 22.4766C104.906 23.1563 103.828 23.4961 102.586 23.4961C100.711 23.4961 99.2344 22.7695 98.1563 21.3164C97.1485 20.0039 96.6446 18.3867 96.6446 16.4649C96.6446 14.7305 97.2774 13.2071 98.543 11.8945C99.8321 10.6055 101.32 9.96094 103.008 9.96094C104.883 9.96094 106.16 10.3945 106.84 11.2617C107.051 11.543 107.156 11.8008 107.156 12.0352C107.156 12.6914 106.851 13.0195 106.242 13.0195C105.82 13.0195 105.316 12.6211 104.73 11.8242C104.168 11.0039 103.535 10.5938 102.832 10.5938C102.316 10.5938 101.777 10.7109 101.215 10.9453C99.3868 11.7891 98.4727 13.5469 98.4727 16.2188C98.4727 17.7422 98.9062 19.0313 99.7735 20.086C100.711 21.2344 101.93 21.8086 103.43 21.8086C105.305 21.8086 106.64 21.0821 107.437 19.6289L107.613 19.6992ZM121.535 13.7578C121.535 13.9688 121.453 14.0742 121.289 14.0742C119.789 14.0742 116.871 14.0508 112.535 14.0039C112.371 14.6133 112.289 15.2813 112.289 16.0078C112.289 17.6485 112.699 18.9961 113.519 20.0508C114.433 21.2227 115.687 21.8086 117.281 21.8086C119.133 21.8086 120.469 21.0821 121.289 19.6289L121.465 19.6992C121.207 20.8711 120.609 21.7969 119.672 22.4766C118.734 23.1563 117.644 23.4961 116.402 23.4961C114.715 23.4961 113.285 22.793 112.113 21.3867C111.035 20.0742 110.496 18.5508 110.496 16.8164C110.496 14.9883 111.023 13.418 112.078 12.1055C113.226 10.6758 114.691 9.96094 116.472 9.96094C118.676 9.96094 120.222 10.793 121.113 12.4571C121.394 13.0195 121.535 13.4531 121.535 13.7578ZM119.39 12.4219C119.39 11.8828 119.109 11.4141 118.547 11.0156C118.031 10.6641 117.492 10.4883 116.93 10.4883C115.008 10.4883 113.601 11.4961 112.711 13.5117L119.144 13.336C119.308 13.125 119.39 12.8203 119.39 12.4219ZM153 18.3281L152.086 23.1445H136.195V22.8985C138.14 22.711 139.16 21.9141 139.254 20.5078C139.254 20.5078 139.254 19.1367 139.254 16.3945V10.3477C139.254 6.1289 139.242 3.80859 139.219 3.38672C139.172 2.54297 138.82 1.95703 138.164 1.62891C137.812 1.44141 137.109 1.27734 136.055 1.13672V0.890625H144.984V1.13672C143.906 1.30078 143.18 1.46484 142.805 1.62891C142.125 1.95703 141.75 2.51953 141.68 3.3164C141.633 4.13672 141.609 6.39844 141.609 10.1016V22.5117C146.156 22.5117 149.039 22.1953 150.258 21.5625C151.312 21.0469 152.144 19.9453 152.754 18.2578L153 18.3281ZM160.172 3.84375C160.172 4.19531 160.043 4.5 159.785 4.75781C159.551 4.99219 159.246 5.10937 158.871 5.10937C158.519 5.10937 158.215 4.98047 157.957 4.72266C157.676 4.46484 157.535 4.16016 157.535 3.80859C157.535 2.98828 157.969 2.57812 158.836 2.57812C159.726 2.57812 160.172 3 160.172 3.84375ZM161.93 23.1445H155.531V22.9336C155.953 22.7695 156.68 22.5821 157.711 22.3711C157.711 22.2539 157.722 22.0664 157.746 21.8086C157.769 21.5274 157.781 21.3281 157.781 21.211V12.9141C157.781 12.6563 157.535 12.4102 157.043 12.1758C156.551 11.9649 156.164 11.8594 155.883 11.8594V11.6836C157.265 11.3086 158.461 10.5352 159.469 9.36328H159.68V21.2813C159.68 21.6328 159.691 21.961 159.715 22.2656C160.137 22.336 160.875 22.5586 161.93 22.9336V23.1445ZM178.734 10.6289C177.797 10.7227 177.14 11.0625 176.765 11.6485C176.742 11.6719 176.555 12.0938 176.203 12.9141C174.586 16.5 173.039 20.086 171.562 23.6719H171.387C170.285 20.9531 169.23 18.4219 168.222 16.0781C167.871 15.2344 167.32 13.9688 166.57 12.2813C166.265 11.6719 165.972 11.2617 165.691 11.0508C165.41 10.8633 164.941 10.7227 164.285 10.6289V10.3828H170.508V10.6289C169.125 10.6992 168.433 10.9922 168.433 11.5078C168.433 11.836 169.711 14.9297 172.265 20.7891C174.445 15.0938 175.535 12.1524 175.535 11.9649C175.535 11.4492 175.301 11.086 174.832 10.875C174.574 10.7813 174.105 10.6992 173.426 10.6289V10.3828H178.734V10.6289ZM185.73 3.84375C185.73 4.19531 185.601 4.5 185.344 4.75781C185.109 4.99219 184.805 5.10937 184.43 5.10937C184.078 5.10937 183.773 4.98047 183.515 4.72266C183.234 4.46484 183.094 4.16016 183.094 3.80859C183.094 2.98828 183.527 2.57812 184.394 2.57812C185.285 2.57812 185.73 3 185.73 3.84375ZM187.488 23.1445H181.09V22.9336C181.512 22.7695 182.238 22.5821 183.269 22.3711C183.269 22.2539 183.281 22.0664 183.305 21.8086C183.328 21.5274 183.34 21.3281 183.34 21.211V12.9141C183.34 12.6563 183.094 12.4102 182.601 12.1758C182.109 11.9649 181.722 11.8594 181.441 11.8594V11.6836C182.824 11.3086 184.019 10.5352 185.027 9.36328H185.238V21.2813C185.238 21.6328 185.25 21.961 185.273 22.2656C185.695 22.336 186.433 22.5586 187.488 22.9336V23.1445ZM204.961 23.1445H198.422V22.8633L200.848 22.336C200.848 21.8672 200.859 21.1055 200.883 20.0508C200.883 19.043 200.883 18.2813 200.883 17.7656C200.883 16.1719 200.871 15.0235 200.848 14.3203C200.777 12.1406 199.687 11.0508 197.578 11.0508C195.914 11.0508 194.625 11.6133 193.711 12.7383V21.3164C193.711 21.4336 193.734 21.7617 193.781 22.3008C194.32 22.418 195.105 22.6289 196.137 22.9336V23.1445H190.019V22.9336C190.582 22.7227 191.18 22.5586 191.812 22.4414C191.812 22.3242 191.824 22.1367 191.848 21.8789C191.848 21.5977 191.848 21.3867 191.848 21.2461V13.5821C191.848 13.1367 191.695 12.7266 191.39 12.3516C191.039 12 190.64 11.8242 190.195 11.8242V11.6485C191.555 11.2266 192.633 10.5 193.43 9.46875H193.676V12.3867C195.199 10.7461 196.922 9.92578 198.844 9.92578C201.469 9.92578 202.781 11.3906 202.781 14.3203V21.5625C202.781 21.7735 202.805 22.0195 202.851 22.3008C203.648 22.5117 204.351 22.7227 204.961 22.9336V23.1445ZM221.941 12.5625H218.953C219.094 13.1016 219.164 13.4414 219.164 13.5821C219.164 15.2227 218.66 16.5117 217.652 17.4492C216.644 18.4102 215.32 18.8906 213.68 18.8906C213.117 18.8906 212.543 18.7852 211.957 18.5742C210.832 19.8164 210.269 20.461 210.269 20.5078C210.269 21.1172 210.949 21.4219 212.308 21.4219C212.801 21.4219 213.539 21.4102 214.523 21.3867C215.484 21.3399 216.199 21.3164 216.668 21.3164C217.933 21.3164 218.988 21.6328 219.832 22.2656C220.746 22.9688 221.203 23.9297 221.203 25.1485C221.203 28.3828 218.238 30 212.308 30C211.207 30 210.176 29.7422 209.215 29.2266C208.043 28.6172 207.457 27.7969 207.457 26.7656C207.457 26.0156 207.902 25.3008 208.793 24.6211C209.543 24.1289 210.281 23.6367 211.008 23.1445C210.422 23.0742 209.801 22.793 209.144 22.3008C208.488 21.7852 208.125 21.2461 208.055 20.6836C208.594 20.2852 209.777 19.5352 211.605 18.4336C209.637 17.7071 208.652 16.3594 208.652 14.3906C208.652 12.9844 209.191 11.8594 210.269 11.0156C211.254 10.2891 212.461 9.92578 213.89 9.92578C215.414 9.92578 216.879 10.3711 218.285 11.2617H221.941V12.5625ZM217.09 14.1445C217.09 12.8789 216.879 11.9766 216.457 11.4375C215.941 10.8047 215.074 10.4883 213.855 10.4883C211.793 10.4883 210.762 11.625 210.762 13.8985C210.762 16.8047 211.828 18.2578 213.961 18.2578C216.047 18.2578 217.09 16.8867 217.09 14.1445ZM220.008 26.0625C220.008 24.1172 218.566 23.1445 215.683 23.1445C215.215 23.1445 214.488 23.1563 213.504 23.1797C212.519 23.2031 211.793 23.2149 211.324 23.2149C210.926 23.6133 210.551 23.9883 210.199 24.3399C209.66 24.9024 209.39 25.3125 209.39 25.5703C209.39 26.7188 209.965 27.586 211.113 28.1719C212.027 28.6172 213.129 28.8399 214.418 28.8399C218.144 28.8399 220.008 27.9141 220.008 26.0625Z" fill="#7C6410"/>
</g>
<defs>
<filter id="filter0_i_92_685" x="0" y="0.890625" width="222.941" height="30.1094" filterUnits="userSpaceOnUse" color-interpolation-filters="sRGB">
<feFlood flood-opacity="0" result="BackgroundImageFix"/>
<feBlend mode="normal" in="SourceGraphic" in2="BackgroundImageFix" result="shape"/>
<feColorMatrix in="SourceAlpha" type="matrix" values="0 0 0 0 0 0 0 0 0 0 0 0 0 0 0 0 0 0 127 0" result="hardAlpha"/>
<feOffset dx="1" dy="1"/>
<feGaussianBlur stdDeviation="2"/>
<feComposite in2="hardAlpha" operator="arithmetic" k2="-1" k3="1"/>
<feColorMatrix type="matrix" values="0 0 0 0 0.4875 0 0 0 0 0.393656 0 0 0 0 0.0609375 0 0 0 0.1 0"/>
<feBlend mode="normal" in2="shape" result="effect1_innerShadow_92_685"/>
</filter>
</defs>
</svg>
