<svg width="123" height="24" viewBox="0 0 123 24" fill="none" xmlns="http://www.w3.org/2000/svg">
<g filter="url(#filter0_d_1_3)">
<path d="M21.957 22.3867L15.9453 22.0352L8.21094 11.2422L5.64453 11.0664C5.64453 13.5508 5.65625 15.4961 5.67969 16.9023C5.67969 17.5117 5.69141 18.4375 5.71484 19.6797C5.78516 20.5234 6.125 21.1211 6.73438 21.4727C7.15625 21.707 7.88281 21.8945 8.91406 22.0352V22.3164H0.0898438V22.0352C1.12109 21.8945 1.83594 21.707 2.23438 21.4727C2.86719 21.1211 3.20703 20.5234 3.25391 19.6797C3.25391 19.5859 3.26562 18.8359 3.28906 17.4297C3.3125 15.5078 3.32422 13.9258 3.32422 12.6836V6.8125C3.32422 4.44531 3.3125 3.08594 3.28906 2.73438C3.19531 1.32812 2.19922 0.53125 0.300781 0.34375V0.0976562C1.12109 0.0976562 2.32812 0.0859375 3.92188 0.0625C5.53906 0.0390625 6.75781 0.0273438 7.57812 0.0273438C12.8516 0.0273438 15.4883 1.83203 15.4883 5.44141C15.4883 8.06641 13.8477 9.87109 10.5664 10.8555C11.9492 12.7539 13.6016 14.957 15.5234 17.4648C16.1562 18.332 16.8828 19.293 17.7031 20.3477C18.5234 21.0977 19.9414 21.6719 21.957 22.0703V22.3867ZM13.0273 5.26562C13.0273 2.21875 10.9766 0.695312 6.875 0.695312H5.71484L5.64453 10.4688H7.78906C9.28906 10.4688 10.5312 9.98828 11.5156 9.02734C12.5234 8.04297 13.0273 6.78906 13.0273 5.26562ZM37.4258 15.918C37.4258 17.7695 36.793 19.3516 35.5273 20.6641C34.2383 22.0234 32.668 22.7031 30.8164 22.7031C28.7539 22.7031 27.125 22.0703 25.9297 20.8047C24.7344 19.5391 24.1367 17.875 24.1367 15.8125C24.1367 13.9375 24.7812 12.3438 26.0703 11.0312C27.3828 9.71875 28.9648 9.0625 30.8164 9.0625C32.832 9.0625 34.4492 9.69531 35.668 10.9609C36.8398 12.2266 37.4258 13.8789 37.4258 15.918ZM35.2109 15.7773C35.2109 14.1602 34.8945 12.7891 34.2617 11.6641C33.4648 10.3047 32.3164 9.625 30.8164 9.625C29.3867 9.625 28.25 10.3047 27.4062 11.6641C26.6797 12.8594 26.3164 14.2188 26.3164 15.7422C26.3164 17.4297 26.6211 18.8359 27.2305 19.9609C28.0039 21.3906 29.1523 22.1055 30.6758 22.1055C32.1992 22.1055 33.3711 21.4023 34.1914 19.9961C34.8711 18.8242 35.2109 17.418 35.2109 15.7773ZM63.5469 22.2812H56.6211V21.9648L59.082 21.4375C59.1523 20.5703 59.1875 19.6328 59.1875 18.625C59.1875 18.3203 59.1758 17.8633 59.1523 17.2539C59.1523 16.6445 59.1523 16.1875 59.1523 15.8828C59.1523 13.9375 59.0703 12.707 58.9062 12.1914C58.5547 10.8555 57.6758 10.1875 56.2695 10.1875C54.6289 10.1875 53.3633 10.6797 52.4727 11.6641V20.7344C52.4727 20.9688 52.4961 21.2031 52.543 21.4375C53.082 21.5547 53.8789 21.7656 54.9336 22.0703V22.2812H48.0078V22.0703L50.5391 21.4727C50.5625 19.9961 50.5742 19.2461 50.5742 19.2227C50.5742 18.8945 50.5742 18.3789 50.5742 17.6758C50.5508 17.0195 50.5391 16.5156 50.5391 16.1641C50.5391 15.9297 50.5508 15.5664 50.5742 15.0742C50.5977 14.582 50.6094 14.207 50.6094 13.9492C50.6094 12.8008 50.4219 11.9453 50.0469 11.3828C49.5547 10.6094 48.6875 10.2109 47.4453 10.1875C46.0391 10.1406 44.8555 10.6914 43.8945 11.8398V20.6992C43.8945 20.9336 43.9062 21.168 43.9297 21.4023C44.5391 21.543 45.3008 21.7656 46.2148 22.0703V22.2812H39.957V22.0703C40.3086 21.9297 40.9883 21.7422 41.9961 21.5078C41.9961 21.4141 42.0078 21.2383 42.0312 20.9805C42.0312 20.7227 42.0312 20.5234 42.0312 20.3828V12.5781C42.0312 11.6406 41.4922 11.1133 40.4141 10.9961V10.7852C41.9141 10.3164 43.0508 9.57812 43.8242 8.57031H43.9648L43.8594 11.4883C45.3594 9.87109 47.0352 9.0625 48.8867 9.0625C50.668 9.0625 51.8047 9.85938 52.2969 11.4531C53.6094 9.85938 55.2969 9.0625 57.3594 9.0625C59.8438 9.0625 61.0859 10.4688 61.0859 13.2812C61.0859 14.1016 61.0859 15.3438 61.0859 17.0078C61.0625 18.6719 61.0508 19.9023 61.0508 20.6992C61.0508 20.9805 61.0625 21.2148 61.0859 21.4023C61.625 21.543 62.4453 21.7656 63.5469 22.0703V22.2812ZM77.5039 19.75C77.457 20.5703 77.1758 21.2383 76.6602 21.7539C76.168 22.2695 75.5117 22.5273 74.6914 22.5273C73.5898 22.5273 72.8398 21.8242 72.4414 20.418C70.8477 21.8477 69.3008 22.5625 67.8008 22.5625C66.6523 22.5625 66.0781 21.9062 66.0781 20.5938C66.0781 18.5312 68.2812 16.7734 72.6875 15.3203C72.7109 14.4062 72.7227 13.1172 72.7227 11.4531C72.7227 11.0078 72.5234 10.6211 72.125 10.293C71.75 9.96484 71.3281 9.80078 70.8594 9.80078C70.0391 9.80078 69.3711 10.1289 68.8555 10.7852C68.3633 11.3242 68.0586 12.0273 67.9414 12.8945H66.2188C66.4297 11.793 67.1328 10.8555 68.3281 10.082C69.4766 9.40234 70.6367 9.0625 71.8086 9.0625C72.6055 9.0625 73.2852 9.30859 73.8477 9.80078C74.4102 10.3398 74.6914 10.9844 74.6914 11.7344C74.6914 12.5781 74.6445 13.832 74.5508 15.4961C74.457 17.1836 74.4102 18.4375 74.4102 19.2578C74.4102 20.4062 74.8203 20.9805 75.6406 20.9805C76.3906 20.9805 76.918 20.5469 77.2227 19.6797L77.5039 19.75ZM72.6523 15.6719C69.6289 17.2422 68.1172 18.6016 68.1172 19.75C68.1172 20.7109 68.5977 21.1914 69.5586 21.1914C70.2383 21.1914 70.8594 21.0391 71.4219 20.7344C72.0547 20.4062 72.4062 19.9375 72.4766 19.3281C72.4766 19.2578 72.5352 18.0391 72.6523 15.6719ZM94.2383 22.2812H87.6992V22L90.125 21.4727C90.125 21.0039 90.1367 20.2422 90.1602 19.1875C90.1602 18.1797 90.1602 17.418 90.1602 16.9023C90.1602 15.3086 90.1484 14.1602 90.125 13.457C90.0547 11.2773 88.9648 10.1875 86.8555 10.1875C85.1914 10.1875 83.9023 10.75 82.9883 11.875V20.4531C82.9883 20.5703 83.0117 20.8984 83.0586 21.4375C83.5977 21.5547 84.3828 21.7656 85.4141 22.0703V22.2812H79.2969V22.0703C79.8594 21.8594 80.457 21.6953 81.0898 21.5781C81.0898 21.4609 81.1016 21.2734 81.125 21.0156C81.125 20.7344 81.125 20.5234 81.125 20.3828V12.7188C81.125 12.2734 80.9727 11.8633 80.668 11.4883C80.3164 11.1367 79.918 10.9609 79.4727 10.9609V10.7852C80.832 10.3633 81.9102 9.63672 82.707 8.60547H82.9531V11.5234C84.4766 9.88281 86.1992 9.0625 88.1211 9.0625C90.7461 9.0625 92.0586 10.5273 92.0586 13.457V20.6992C92.0586 20.9102 92.082 21.1562 92.1289 21.4375C92.9258 21.6484 93.6289 21.8594 94.2383 22.0703V22.2812ZM107.703 18.8359C107.422 20.0312 106.824 20.957 105.91 21.6133C104.996 22.293 103.918 22.6328 102.676 22.6328C100.801 22.6328 99.3242 21.9062 98.2461 20.4531C97.2383 19.1406 96.7344 17.5234 96.7344 15.6016C96.7344 13.8672 97.3672 12.3438 98.6328 11.0312C99.9219 9.74219 101.41 9.09766 103.098 9.09766C104.973 9.09766 106.25 9.53125 106.93 10.3984C107.141 10.6797 107.246 10.9375 107.246 11.1719C107.246 11.8281 106.941 12.1562 106.332 12.1562C105.91 12.1562 105.406 11.7578 104.82 10.9609C104.258 10.1406 103.625 9.73047 102.922 9.73047C102.406 9.73047 101.867 9.84766 101.305 10.082C99.4766 10.9258 98.5625 12.6836 98.5625 15.3555C98.5625 16.8789 98.9961 18.168 99.8633 19.2227C100.801 20.3711 102.02 20.9453 103.52 20.9453C105.395 20.9453 106.73 20.2188 107.527 18.7656L107.703 18.8359ZM121.625 12.8945C121.625 13.1055 121.543 13.2109 121.379 13.2109C119.879 13.2109 116.961 13.1875 112.625 13.1406C112.461 13.75 112.379 14.418 112.379 15.1445C112.379 16.7852 112.789 18.1328 113.609 19.1875C114.523 20.3594 115.777 20.9453 117.371 20.9453C119.223 20.9453 120.559 20.2188 121.379 18.7656L121.555 18.8359C121.297 20.0078 120.699 20.9336 119.762 21.6133C118.824 22.293 117.734 22.6328 116.492 22.6328C114.805 22.6328 113.375 21.9297 112.203 20.5234C111.125 19.2109 110.586 17.6875 110.586 15.9531C110.586 14.125 111.113 12.5547 112.168 11.2422C113.316 9.8125 114.781 9.09766 116.562 9.09766C118.766 9.09766 120.312 9.92969 121.203 11.5938C121.484 12.1562 121.625 12.5898 121.625 12.8945ZM119.48 11.5586C119.48 11.0195 119.199 10.5508 118.637 10.1523C118.121 9.80078 117.582 9.625 117.02 9.625C115.098 9.625 113.691 10.6328 112.801 12.6484L119.234 12.4727C119.398 12.2617 119.48 11.957 119.48 11.5586Z" fill="#7C6410"/>
</g>
<defs>
<filter id="filter0_d_1_3" x="0.0898438" y="0.0273438" width="122.535" height="23.6758" filterUnits="userSpaceOnUse" color-interpolation-filters="sRGB">
<feFlood flood-opacity="0" result="BackgroundImageFix"/>
<feColorMatrix in="SourceAlpha" type="matrix" values="0 0 0 0 0 0 0 0 0 0 0 0 0 0 0 0 0 0 127 0" result="hardAlpha"/>
<feOffset dx="1" dy="1"/>
<feComposite in2="hardAlpha" operator="out"/>
<feColorMatrix type="matrix" values="0 0 0 0 0.4875 0 0 0 0 0.393656 0 0 0 0 0.0609375 0 0 0 0.1 0"/>
<feBlend mode="normal" in2="BackgroundImageFix" result="effect1_dropShadow_1_3"/>
<feBlend mode="normal" in="SourceGraphic" in2="effect1_dropShadow_1_3" result="shape"/>
</filter>
</defs>
</svg>
