<svg width="224" height="31" viewBox="0 0 224 31" fill="none" xmlns="http://www.w3.org/2000/svg">
<g filter="url(#filter0_d_1_3)">
<path d="M21.957 22.3867L15.9453 22.0352L8.21094 11.2422L5.64453 11.0664C5.64453 13.5508 5.65625 15.4961 5.67969 16.9023C5.67969 17.5117 5.69141 18.4375 5.71484 19.6797C5.78516 20.5234 6.125 21.1211 6.73438 21.4727C7.15625 21.707 7.88281 21.8945 8.91406 22.0352V22.3164H0.0898438V22.0352C1.12109 21.8945 1.83594 21.707 2.23438 21.4727C2.86719 21.1211 3.20703 20.5234 3.25391 19.6797C3.25391 19.5859 3.26562 18.8359 3.28906 17.4297C3.3125 15.5078 3.32422 13.9258 3.32422 12.6836V6.8125C3.32422 4.44531 3.3125 3.08594 3.28906 2.73438C3.19531 1.32812 2.19922 0.53125 0.300781 0.34375V0.0976562C1.12109 0.0976562 2.32812 0.0859375 3.92188 0.0625C5.53906 0.0390625 6.75781 0.0273438 7.57812 0.0273438C12.8516 0.0273438 15.4883 1.83203 15.4883 5.44141C15.4883 8.06641 13.8477 9.87109 10.5664 10.8555C11.9492 12.7539 13.6016 14.957 15.5234 17.4648C16.1562 18.332 16.8828 19.293 17.7031 20.3477C18.5234 21.0977 19.9414 21.6719 21.957 22.0703V22.3867ZM13.0273 5.26562C13.0273 2.21875 10.9766 0.695312 6.875 0.695312H5.71484L5.64453 10.4688H7.78906C9.28906 10.4688 10.5312 9.98828 11.5156 9.02734C12.5234 8.04297 13.0273 6.78906 13.0273 5.26562ZM37.4258 15.918C37.4258 17.7695 36.793 19.3516 35.5273 20.6641C34.2383 22.0234 32.668 22.7031 30.8164 22.7031C28.7539 22.7031 27.125 22.0703 25.9297 20.8047C24.7344 19.5391 24.1367 17.875 24.1367 15.8125C24.1367 13.9375 24.7812 12.3438 26.0703 11.0312C27.3828 9.71875 28.9648 9.0625 30.8164 9.0625C32.832 9.0625 34.4492 9.69531 35.668 10.9609C36.8398 12.2266 37.4258 13.8789 37.4258 15.918ZM35.2109 15.7773C35.2109 14.1602 34.8945 12.7891 34.2617 11.6641C33.4648 10.3047 32.3164 9.625 30.8164 9.625C29.3867 9.625 28.25 10.3047 27.4062 11.6641C26.6797 12.8594 26.3164 14.2188 26.3164 15.7422C26.3164 17.4297 26.6211 18.8359 27.2305 19.9609C28.0039 21.3906 29.1523 22.1055 30.6758 22.1055C32.1992 22.1055 33.3711 21.4023 34.1914 19.9961C34.8711 18.8242 35.2109 17.418 35.2109 15.7773ZM63.5469 22.2812H56.6211V21.9648L59.082 21.4375C59.1523 20.5703 59.1875 19.6328 59.1875 18.625C59.1875 18.3203 59.1758 17.8633 59.1523 17.2539C59.1523 16.6445 59.1523 16.1875 59.1523 15.8828C59.1523 13.9375 59.0703 12.707 58.9062 12.1914C58.5547 10.8555 57.6758 10.1875 56.2695 10.1875C54.6289 10.1875 53.3633 10.6797 52.4727 11.6641V20.7344C52.4727 20.9688 52.4961 21.2031 52.543 21.4375C53.082 21.5547 53.8789 21.7656 54.9336 22.0703V22.2812H48.0078V22.0703L50.5391 21.4727C50.5625 19.9961 50.5742 19.2461 50.5742 19.2227C50.5742 18.8945 50.5742 18.3789 50.5742 17.6758C50.5508 17.0195 50.5391 16.5156 50.5391 16.1641C50.5391 15.9297 50.5508 15.5664 50.5742 15.0742C50.5977 14.582 50.6094 14.207 50.6094 13.9492C50.6094 12.8008 50.4219 11.9453 50.0469 11.3828C49.5547 10.6094 48.6875 10.2109 47.4453 10.1875C46.0391 10.1406 44.8555 10.6914 43.8945 11.8398V20.6992C43.8945 20.9336 43.9062 21.168 43.9297 21.4023C44.5391 21.543 45.3008 21.7656 46.2148 22.0703V22.2812H39.957V22.0703C40.3086 21.9297 40.9883 21.7422 41.9961 21.5078C41.9961 21.4141 42.0078 21.2383 42.0312 20.9805C42.0312 20.7227 42.0312 20.5234 42.0312 20.3828V12.5781C42.0312 11.6406 41.4922 11.1133 40.4141 10.9961V10.7852C41.9141 10.3164 43.0508 9.57812 43.8242 8.57031H43.9648L43.8594 11.4883C45.3594 9.87109 47.0352 9.0625 48.8867 9.0625C50.668 9.0625 51.8047 9.85938 52.2969 11.4531C53.6094 9.85938 55.2969 9.0625 57.3594 9.0625C59.8438 9.0625 61.0859 10.4688 61.0859 13.2812C61.0859 14.1016 61.0859 15.3438 61.0859 17.0078C61.0625 18.6719 61.0508 19.9023 61.0508 20.6992C61.0508 20.9805 61.0625 21.2148 61.0859 21.4023C61.625 21.543 62.4453 21.7656 63.5469 22.0703V22.2812ZM77.5039 19.75C77.457 20.5703 77.1758 21.2383 76.6602 21.7539C76.168 22.2695 75.5117 22.5273 74.6914 22.5273C73.5898 22.5273 72.8398 21.8242 72.4414 20.418C70.8477 21.8477 69.3008 22.5625 67.8008 22.5625C66.6523 22.5625 66.0781 21.9062 66.0781 20.5938C66.0781 18.5312 68.2812 16.7734 72.6875 15.3203C72.7109 14.4062 72.7227 13.1172 72.7227 11.4531C72.7227 11.0078 72.5234 10.6211 72.125 10.293C71.75 9.96484 71.3281 9.80078 70.8594 9.80078C70.0391 9.80078 69.3711 10.1289 68.8555 10.7852C68.3633 11.3242 68.0586 12.0273 67.9414 12.8945H66.2188C66.4297 11.793 67.1328 10.8555 68.3281 10.082C69.4766 9.40234 70.6367 9.0625 71.8086 9.0625C72.6055 9.0625 73.2852 9.30859 73.8477 9.80078C74.4102 10.3398 74.6914 10.9844 74.6914 11.7344C74.6914 12.5781 74.6445 13.832 74.5508 15.4961C74.457 17.1836 74.4102 18.4375 74.4102 19.2578C74.4102 20.4062 74.8203 20.9805 75.6406 20.9805C76.3906 20.9805 76.918 20.5469 77.2227 19.6797L77.5039 19.75ZM72.6523 15.6719C69.6289 17.2422 68.1172 18.6016 68.1172 19.75C68.1172 20.7109 68.5977 21.1914 69.5586 21.1914C70.2383 21.1914 70.8594 21.0391 71.4219 20.7344C72.0547 20.4062 72.4062 19.9375 72.4766 19.3281C72.4766 19.2578 72.5352 18.0391 72.6523 15.6719ZM94.2383 22.2812H87.6992V22L90.125 21.4727C90.125 21.0039 90.1367 20.2422 90.1602 19.1875C90.1602 18.1797 90.1602 17.418 90.1602 16.9023C90.1602 15.3086 90.1484 14.1602 90.125 13.457C90.0547 11.2773 88.9648 10.1875 86.8555 10.1875C85.1914 10.1875 83.9023 10.75 82.9883 11.875V20.4531C82.9883 20.5703 83.0117 20.8984 83.0586 21.4375C83.5977 21.5547 84.3828 21.7656 85.4141 22.0703V22.2812H79.2969V22.0703C79.8594 21.8594 80.457 21.6953 81.0898 21.5781C81.0898 21.4609 81.1016 21.2734 81.125 21.0156C81.125 20.7344 81.125 20.5234 81.125 20.3828V12.7188C81.125 12.2734 80.9727 11.8633 80.668 11.4883C80.3164 11.1367 79.918 10.9609 79.4727 10.9609V10.7852C80.832 10.3633 81.9102 9.63672 82.707 8.60547H82.9531V11.5234C84.4766 9.88281 86.1992 9.0625 88.1211 9.0625C90.7461 9.0625 92.0586 10.5273 92.0586 13.457V20.6992C92.0586 20.9102 92.082 21.1562 92.1289 21.4375C92.9258 21.6484 93.6289 21.8594 94.2383 22.0703V22.2812ZM107.703 18.8359C107.422 20.0312 106.824 20.957 105.91 21.6133C104.996 22.293 103.918 22.6328 102.676 22.6328C100.801 22.6328 99.3242 21.9062 98.2461 20.4531C97.2383 19.1406 96.7344 17.5234 96.7344 15.6016C96.7344 13.8672 97.3672 12.3438 98.6328 11.0312C99.9219 9.74219 101.41 9.09766 103.098 9.09766C104.973 9.09766 106.25 9.53125 106.93 10.3984C107.141 10.6797 107.246 10.9375 107.246 11.1719C107.246 11.8281 106.941 12.1562 106.332 12.1562C105.91 12.1562 105.406 11.7578 104.82 10.9609C104.258 10.1406 103.625 9.73047 102.922 9.73047C102.406 9.73047 101.867 9.84766 101.305 10.082C99.4766 10.9258 98.5625 12.6836 98.5625 15.3555C98.5625 16.8789 98.9961 18.168 99.8633 19.2227C100.801 20.3711 102.02 20.9453 103.52 20.9453C105.395 20.9453 106.73 20.2188 107.527 18.7656L107.703 18.8359ZM121.625 12.8945C121.625 13.1055 121.543 13.2109 121.379 13.2109C119.879 13.2109 116.961 13.1875 112.625 13.1406C112.461 13.75 112.379 14.418 112.379 15.1445C112.379 16.7852 112.789 18.1328 113.609 19.1875C114.523 20.3594 115.777 20.9453 117.371 20.9453C119.223 20.9453 120.559 20.2188 121.379 18.7656L121.555 18.8359C121.297 20.0078 120.699 20.9336 119.762 21.6133C118.824 22.293 117.734 22.6328 116.492 22.6328C114.805 22.6328 113.375 21.9297 112.203 20.5234C111.125 19.2109 110.586 17.6875 110.586 15.9531C110.586 14.125 111.113 12.5547 112.168 11.2422C113.316 9.8125 114.781 9.09766 116.562 9.09766C118.766 9.09766 120.312 9.92969 121.203 11.5938C121.484 12.1562 121.625 12.5898 121.625 12.8945ZM119.48 11.5586C119.48 11.0195 119.199 10.5508 118.637 10.1523C118.121 9.80078 117.582 9.625 117.02 9.625C115.098 9.625 113.691 10.6328 112.801 12.6484L119.234 12.4727C119.398 12.2617 119.48 11.957 119.48 11.5586ZM153.09 17.4648L152.176 22.2812H136.285V22.0352C138.23 21.8477 139.25 21.0508 139.344 19.6445C139.344 19.6445 139.344 18.2734 139.344 15.5312V9.48438C139.344 5.26562 139.332 2.94531 139.309 2.52344C139.262 1.67969 138.91 1.09375 138.254 0.765625C137.902 0.578125 137.199 0.414062 136.145 0.273438V0.0273438H145.074V0.273438C143.996 0.4375 143.27 0.601563 142.895 0.765625C142.215 1.09375 141.84 1.65625 141.77 2.45312C141.723 3.27344 141.699 5.53516 141.699 9.23828V21.6484C146.246 21.6484 149.129 21.332 150.348 20.6992C151.402 20.1836 152.234 19.082 152.844 17.3945L153.09 17.4648ZM160.262 2.98047C160.262 3.33203 160.133 3.63672 159.875 3.89453C159.641 4.12891 159.336 4.24609 158.961 4.24609C158.609 4.24609 158.305 4.11719 158.047 3.85938C157.766 3.60156 157.625 3.29688 157.625 2.94531C157.625 2.125 158.059 1.71484 158.926 1.71484C159.816 1.71484 160.262 2.13672 160.262 2.98047ZM162.02 22.2812H155.621V22.0703C156.043 21.9062 156.77 21.7188 157.801 21.5078C157.801 21.3906 157.812 21.2031 157.836 20.9453C157.859 20.6641 157.871 20.4648 157.871 20.3477V12.0508C157.871 11.793 157.625 11.5469 157.133 11.3125C156.641 11.1016 156.254 10.9961 155.973 10.9961V10.8203C157.355 10.4453 158.551 9.67188 159.559 8.5H159.77V20.418C159.77 20.7695 159.781 21.0977 159.805 21.4023C160.227 21.4727 160.965 21.6953 162.02 22.0703V22.2812ZM178.824 9.76562C177.887 9.85938 177.23 10.1992 176.855 10.7852C176.832 10.8086 176.645 11.2305 176.293 12.0508C174.676 15.6367 173.129 19.2227 171.652 22.8086H171.477C170.375 20.0898 169.32 17.5586 168.312 15.2148C167.961 14.3711 167.41 13.1055 166.66 11.418C166.355 10.8086 166.062 10.3984 165.781 10.1875C165.5 10 165.031 9.85938 164.375 9.76562V9.51953H170.598V9.76562C169.215 9.83594 168.523 10.1289 168.523 10.6445C168.523 10.9727 169.801 14.0664 172.355 19.9258C174.535 14.2305 175.625 11.2891 175.625 11.1016C175.625 10.5859 175.391 10.2227 174.922 10.0117C174.664 9.91797 174.195 9.83594 173.516 9.76562V9.51953H178.824V9.76562ZM185.82 2.98047C185.82 3.33203 185.691 3.63672 185.434 3.89453C185.199 4.12891 184.895 4.24609 184.52 4.24609C184.168 4.24609 183.863 4.11719 183.605 3.85938C183.324 3.60156 183.184 3.29688 183.184 2.94531C183.184 2.125 183.617 1.71484 184.484 1.71484C185.375 1.71484 185.82 2.13672 185.82 2.98047ZM187.578 22.2812H181.18V22.0703C181.602 21.9062 182.328 21.7188 183.359 21.5078C183.359 21.3906 183.371 21.2031 183.395 20.9453C183.418 20.6641 183.43 20.4648 183.43 20.3477V12.0508C183.43 11.793 183.184 11.5469 182.691 11.3125C182.199 11.1016 181.812 10.9961 181.531 10.9961V10.8203C182.914 10.4453 184.109 9.67188 185.117 8.5H185.328V20.418C185.328 20.7695 185.34 21.0977 185.363 21.4023C185.785 21.4727 186.523 21.6953 187.578 22.0703V22.2812ZM205.051 22.2812H198.512V22L200.938 21.4727C200.938 21.0039 200.949 20.2422 200.973 19.1875C200.973 18.1797 200.973 17.418 200.973 16.9023C200.973 15.3086 200.961 14.1602 200.938 13.457C200.867 11.2773 199.777 10.1875 197.668 10.1875C196.004 10.1875 194.715 10.75 193.801 11.875V20.4531C193.801 20.5703 193.824 20.8984 193.871 21.4375C194.41 21.5547 195.195 21.7656 196.227 22.0703V22.2812H190.109V22.0703C190.672 21.8594 191.27 21.6953 191.902 21.5781C191.902 21.4609 191.914 21.2734 191.938 21.0156C191.938 20.7344 191.938 20.5234 191.938 20.3828V12.7188C191.938 12.2734 191.785 11.8633 191.48 11.4883C191.129 11.1367 190.73 10.9609 190.285 10.9609V10.7852C191.645 10.3633 192.723 9.63672 193.52 8.60547H193.766V11.5234C195.289 9.88281 197.012 9.0625 198.934 9.0625C201.559 9.0625 202.871 10.5273 202.871 13.457V20.6992C202.871 20.9102 202.895 21.1562 202.941 21.4375C203.738 21.6484 204.441 21.8594 205.051 22.0703V22.2812ZM222.031 11.6992H219.043C219.184 12.2383 219.254 12.5781 219.254 12.7188C219.254 14.3594 218.75 15.6484 217.742 16.5859C216.734 17.5469 215.41 18.0273 213.77 18.0273C213.207 18.0273 212.633 17.9219 212.047 17.7109C210.922 18.9531 210.359 19.5977 210.359 19.6445C210.359 20.2539 211.039 20.5586 212.398 20.5586C212.891 20.5586 213.629 20.5469 214.613 20.5234C215.574 20.4766 216.289 20.4531 216.758 20.4531C218.023 20.4531 219.078 20.7695 219.922 21.4023C220.836 22.1055 221.293 23.0664 221.293 24.2852C221.293 27.5195 218.328 29.1367 212.398 29.1367C211.297 29.1367 210.266 28.8789 209.305 28.3633C208.133 27.7539 207.547 26.9336 207.547 25.9023C207.547 25.1523 207.992 24.4375 208.883 23.7578C209.633 23.2656 210.371 22.7734 211.098 22.2812C210.512 22.2109 209.891 21.9297 209.234 21.4375C208.578 20.9219 208.215 20.3828 208.145 19.8203C208.684 19.4219 209.867 18.6719 211.695 17.5703C209.727 16.8438 208.742 15.4961 208.742 13.5273C208.742 12.1211 209.281 10.9961 210.359 10.1523C211.344 9.42578 212.551 9.0625 213.98 9.0625C215.504 9.0625 216.969 9.50781 218.375 10.3984H222.031V11.6992ZM217.18 13.2812C217.18 12.0156 216.969 11.1133 216.547 10.5742C216.031 9.94141 215.164 9.625 213.945 9.625C211.883 9.625 210.852 10.7617 210.852 13.0352C210.852 15.9414 211.918 17.3945 214.051 17.3945C216.137 17.3945 217.18 16.0234 217.18 13.2812ZM220.098 25.1992C220.098 23.2539 218.656 22.2812 215.773 22.2812C215.305 22.2812 214.578 22.293 213.594 22.3164C212.609 22.3398 211.883 22.3516 211.414 22.3516C211.016 22.75 210.641 23.125 210.289 23.4766C209.75 24.0391 209.48 24.4492 209.48 24.707C209.48 25.8555 210.055 26.7227 211.203 27.3086C212.117 27.7539 213.219 27.9766 214.508 27.9766C218.234 27.9766 220.098 27.0508 220.098 25.1992Z" fill="#7C6410"/>
</g>
<defs>
<filter id="filter0_d_1_3" x="0.0898438" y="0.0273438" width="222.941" height="30.1094" filterUnits="userSpaceOnUse" color-interpolation-filters="sRGB">
<feFlood flood-opacity="0" result="BackgroundImageFix"/>
<feColorMatrix in="SourceAlpha" type="matrix" values="0 0 0 0 0 0 0 0 0 0 0 0 0 0 0 0 0 0 127 0" result="hardAlpha"/>
<feOffset dx="1" dy="1"/>
<feComposite in2="hardAlpha" operator="out"/>
<feColorMatrix type="matrix" values="0 0 0 0 0.4875 0 0 0 0 0.393656 0 0 0 0 0.0609375 0 0 0 0.1 0"/>
<feBlend mode="normal" in2="BackgroundImageFix" result="effect1_dropShadow_1_3"/>
<feBlend mode="normal" in="SourceGraphic" in2="effect1_dropShadow_1_3" result="shape"/>
</filter>
</defs>
</svg>
