<svg width="397" height="54" viewBox="0 0 397 54" fill="none" xmlns="http://www.w3.org/2000/svg">
<g filter="url(#filter0_d_92_632)">
<path d="M39.8125 40.6875L29.125 40.0625L15.375 20.875L10.8125 20.5625C10.8125 24.9792 10.8333 28.4375 10.875 30.9375C10.875 32.0208 10.8958 33.6667 10.9375 35.875C11.0625 37.375 11.6667 38.4375 12.75 39.0625C13.5 39.4792 14.7917 39.8125 16.625 40.0625V40.5625H0.9375V40.0625C2.77083 39.8125 4.04167 39.4792 4.75 39.0625C5.875 38.4375 6.47917 37.375 6.5625 35.875C6.5625 35.7083 6.58333 34.375 6.625 31.875C6.66667 28.4583 6.6875 25.6458 6.6875 23.4375V13C6.6875 8.79167 6.66667 6.375 6.625 5.75C6.45833 3.25 4.6875 1.83333 1.3125 1.5V1.0625C2.77083 1.0625 4.91667 1.04167 7.75 1C10.625 0.958333 12.7917 0.9375 14.25 0.9375C23.625 0.9375 28.3125 4.14583 28.3125 10.5625C28.3125 15.2292 25.3958 18.4375 19.5625 20.1875C22.0208 23.5625 24.9583 27.4792 28.375 31.9375C29.5 33.4792 30.7917 35.1875 32.25 37.0625C33.7083 38.3958 36.2292 39.4167 39.8125 40.125V40.6875ZM23.9375 10.25C23.9375 4.83333 20.2917 2.125 13 2.125H10.9375L10.8125 19.5H14.625C17.2917 19.5 19.5 18.6458 21.25 16.9375C23.0417 15.1875 23.9375 12.9583 23.9375 10.25ZM67.3125 29.1875C67.3125 32.4792 66.1875 35.2917 63.9375 37.625C61.6458 40.0417 58.8542 41.25 55.5625 41.25C51.8958 41.25 49 40.125 46.875 37.875C44.75 35.625 43.6875 32.6667 43.6875 29C43.6875 25.6667 44.8333 22.8333 47.125 20.5C49.4583 18.1667 52.2708 17 55.5625 17C59.1458 17 62.0208 18.125 64.1875 20.375C66.2708 22.625 67.3125 25.5625 67.3125 29.1875ZM63.375 28.9375C63.375 26.0625 62.8125 23.625 61.6875 21.625C60.2708 19.2083 58.2292 18 55.5625 18C53.0208 18 51 19.2083 49.5 21.625C48.2083 23.75 47.5625 26.1667 47.5625 28.875C47.5625 31.875 48.1042 34.375 49.1875 36.375C50.5625 38.9167 52.6042 40.1875 55.3125 40.1875C58.0208 40.1875 60.1042 38.9375 61.5625 36.4375C62.7708 34.3542 63.375 31.8542 63.375 28.9375ZM113.75 40.5H101.438V39.9375L105.812 39C105.938 37.4583 106 35.7917 106 34C106 33.4583 105.979 32.6458 105.938 31.5625C105.938 30.4792 105.938 29.6667 105.938 29.125C105.938 25.6667 105.792 23.4792 105.5 22.5625C104.875 20.1875 103.312 19 100.812 19C97.8958 19 95.6458 19.875 94.0625 21.625V37.75C94.0625 38.1667 94.1042 38.5833 94.1875 39C95.1458 39.2083 96.5625 39.5833 98.4375 40.125V40.5H86.125V40.125L90.625 39.0625C90.6667 36.4375 90.6875 35.1042 90.6875 35.0625C90.6875 34.4792 90.6875 33.5625 90.6875 32.3125C90.6458 31.1458 90.625 30.25 90.625 29.625C90.625 29.2083 90.6458 28.5625 90.6875 27.6875C90.7292 26.8125 90.75 26.1458 90.75 25.6875C90.75 23.6458 90.4167 22.125 89.75 21.125C88.875 19.75 87.3333 19.0417 85.125 19C82.625 18.9167 80.5208 19.8958 78.8125 21.9375V37.6875C78.8125 38.1042 78.8333 38.5208 78.875 38.9375C79.9583 39.1875 81.3125 39.5833 82.9375 40.125V40.5H71.8125V40.125C72.4375 39.875 73.6458 39.5417 75.4375 39.125C75.4375 38.9583 75.4583 38.6458 75.5 38.1875C75.5 37.7292 75.5 37.375 75.5 37.125V23.25C75.5 21.5833 74.5417 20.6458 72.625 20.4375V20.0625C75.2917 19.2292 77.3125 17.9167 78.6875 16.125H78.9375L78.75 21.3125C81.4167 18.4375 84.3958 17 87.6875 17C90.8542 17 92.875 18.4167 93.75 21.25C96.0833 18.4167 99.0833 17 102.75 17C107.167 17 109.375 19.5 109.375 24.5C109.375 25.9583 109.375 28.1667 109.375 31.125C109.333 34.0833 109.312 36.2708 109.312 37.6875C109.312 38.1875 109.333 38.6042 109.375 38.9375C110.333 39.1875 111.792 39.5833 113.75 40.125V40.5ZM138.562 36C138.479 37.4583 137.979 38.6458 137.062 39.5625C136.188 40.4792 135.021 40.9375 133.562 40.9375C131.604 40.9375 130.271 39.6875 129.562 37.1875C126.729 39.7292 123.979 41 121.312 41C119.271 41 118.25 39.8333 118.25 37.5C118.25 33.8333 122.167 30.7083 130 28.125C130.042 26.5 130.062 24.2083 130.062 21.25C130.062 20.4583 129.708 19.7708 129 19.1875C128.333 18.6042 127.583 18.3125 126.75 18.3125C125.292 18.3125 124.104 18.8958 123.188 20.0625C122.312 21.0208 121.771 22.2708 121.562 23.8125H118.5C118.875 21.8542 120.125 20.1875 122.25 18.8125C124.292 17.6042 126.354 17 128.438 17C129.854 17 131.062 17.4375 132.062 18.3125C133.062 19.2708 133.562 20.4167 133.562 21.75C133.562 23.25 133.479 25.4792 133.312 28.4375C133.146 31.4375 133.062 33.6667 133.062 35.125C133.062 37.1667 133.792 38.1875 135.25 38.1875C136.583 38.1875 137.521 37.4167 138.062 35.875L138.562 36ZM129.938 28.75C124.562 31.5417 121.875 33.9583 121.875 36C121.875 37.7083 122.729 38.5625 124.438 38.5625C125.646 38.5625 126.75 38.2917 127.75 37.75C128.875 37.1667 129.5 36.3333 129.625 35.25C129.625 35.125 129.729 32.9583 129.938 28.75ZM168.312 40.5H156.688V40L161 39.0625C161 38.2292 161.021 36.875 161.062 35C161.062 33.2083 161.062 31.8542 161.062 30.9375C161.062 28.1042 161.042 26.0625 161 24.8125C160.875 20.9375 158.938 19 155.188 19C152.229 19 149.938 20 148.312 22V37.25C148.312 37.4583 148.354 38.0417 148.438 39C149.396 39.2083 150.792 39.5833 152.625 40.125V40.5H141.75V40.125C142.75 39.75 143.812 39.4583 144.938 39.25C144.938 39.0417 144.958 38.7083 145 38.25C145 37.75 145 37.375 145 37.125V23.5C145 22.7083 144.729 21.9792 144.188 21.3125C143.562 20.6875 142.854 20.375 142.062 20.375V20.0625C144.479 19.3125 146.396 18.0208 147.812 16.1875H148.25V21.375C150.958 18.4583 154.021 17 157.438 17C162.104 17 164.438 19.6042 164.438 24.8125V37.6875C164.438 38.0625 164.479 38.5 164.562 39C165.979 39.375 167.229 39.75 168.312 40.125V40.5ZM192.25 34.375C191.75 36.5 190.688 38.1458 189.062 39.3125C187.438 40.5208 185.521 41.125 183.312 41.125C179.979 41.125 177.354 39.8333 175.438 37.25C173.646 34.9167 172.75 32.0417 172.75 28.625C172.75 25.5417 173.875 22.8333 176.125 20.5C178.417 18.2083 181.062 17.0625 184.062 17.0625C187.396 17.0625 189.667 17.8333 190.875 19.375C191.25 19.875 191.438 20.3333 191.438 20.75C191.438 21.9167 190.896 22.5 189.812 22.5C189.062 22.5 188.167 21.7917 187.125 20.375C186.125 18.9167 185 18.1875 183.75 18.1875C182.833 18.1875 181.875 18.3958 180.875 18.8125C177.625 20.3125 176 23.4375 176 28.1875C176 30.8958 176.771 33.1875 178.312 35.0625C179.979 37.1042 182.146 38.125 184.812 38.125C188.146 38.125 190.521 36.8333 191.938 34.25L192.25 34.375ZM217 23.8125C217 24.1875 216.854 24.375 216.562 24.375C213.896 24.375 208.708 24.3333 201 24.25C200.708 25.3333 200.562 26.5208 200.562 27.8125C200.562 30.7292 201.292 33.125 202.75 35C204.375 37.0833 206.604 38.125 209.438 38.125C212.729 38.125 215.104 36.8333 216.562 34.25L216.875 34.375C216.417 36.4583 215.354 38.1042 213.688 39.3125C212.021 40.5208 210.083 41.125 207.875 41.125C204.875 41.125 202.333 39.875 200.25 37.375C198.333 35.0417 197.375 32.3333 197.375 29.25C197.375 26 198.312 23.2083 200.188 20.875C202.229 18.3333 204.833 17.0625 208 17.0625C211.917 17.0625 214.667 18.5417 216.25 21.5C216.75 22.5 217 23.2708 217 23.8125ZM213.188 21.4375C213.188 20.4792 212.688 19.6458 211.688 18.9375C210.771 18.3125 209.812 18 208.812 18C205.396 18 202.896 19.7917 201.312 23.375L212.75 23.0625C213.042 22.6875 213.188 22.1458 213.188 21.4375ZM272.938 31.9375L271.312 40.5H243.062V40.0625C246.521 39.7292 248.333 38.3125 248.5 35.8125C248.5 35.8125 248.5 33.375 248.5 28.5V17.75C248.5 10.25 248.479 6.125 248.438 5.375C248.354 3.875 247.729 2.83333 246.562 2.25C245.938 1.91667 244.688 1.625 242.812 1.375V0.9375H258.688V1.375C256.771 1.66667 255.479 1.95833 254.812 2.25C253.604 2.83333 252.938 3.83333 252.812 5.25C252.729 6.70833 252.688 10.7292 252.688 17.3125V39.375C260.771 39.375 265.896 38.8125 268.062 37.6875C269.938 36.7708 271.417 34.8125 272.5 31.8125L272.938 31.9375ZM285.688 6.1875C285.688 6.8125 285.458 7.35417 285 7.8125C284.583 8.22917 284.042 8.4375 283.375 8.4375C282.75 8.4375 282.208 8.20833 281.75 7.75C281.25 7.29167 281 6.75 281 6.125C281 4.66667 281.771 3.9375 283.312 3.9375C284.896 3.9375 285.688 4.6875 285.688 6.1875ZM288.812 40.5H277.438V40.125C278.188 39.8333 279.479 39.5 281.312 39.125C281.312 38.9167 281.333 38.5833 281.375 38.125C281.417 37.625 281.438 37.2708 281.438 37.0625V22.3125C281.438 21.8542 281 21.4167 280.125 21C279.25 20.625 278.562 20.4375 278.062 20.4375V20.125C280.521 19.4583 282.646 18.0833 284.438 16H284.812V37.1875C284.812 37.8125 284.833 38.3958 284.875 38.9375C285.625 39.0625 286.938 39.4583 288.812 40.125V40.5ZM318.688 18.25C317.021 18.4167 315.854 19.0208 315.188 20.0625C315.146 20.1042 314.812 20.8542 314.188 22.3125C311.312 28.6875 308.562 35.0625 305.938 41.4375H305.625C303.667 36.6042 301.792 32.1042 300 27.9375C299.375 26.4375 298.396 24.1875 297.062 21.1875C296.521 20.1042 296 19.375 295.5 19C295 18.6667 294.167 18.4167 293 18.25V17.8125H304.062V18.25C301.604 18.375 300.375 18.8958 300.375 19.8125C300.375 20.3958 302.646 25.8958 307.188 36.3125C311.062 26.1875 313 20.9583 313 20.625C313 19.7083 312.583 19.0625 311.75 18.6875C311.292 18.5208 310.458 18.375 309.25 18.25V17.8125H318.688V18.25ZM331.125 6.1875C331.125 6.8125 330.896 7.35417 330.438 7.8125C330.021 8.22917 329.479 8.4375 328.812 8.4375C328.188 8.4375 327.646 8.20833 327.188 7.75C326.688 7.29167 326.438 6.75 326.438 6.125C326.438 4.66667 327.208 3.9375 328.75 3.9375C330.333 3.9375 331.125 4.6875 331.125 6.1875ZM334.25 40.5H322.875V40.125C323.625 39.8333 324.917 39.5 326.75 39.125C326.75 38.9167 326.771 38.5833 326.812 38.125C326.854 37.625 326.875 37.2708 326.875 37.0625V22.3125C326.875 21.8542 326.438 21.4167 325.562 21C324.688 20.625 324 20.4375 323.5 20.4375V20.125C325.958 19.4583 328.083 18.0833 329.875 16H330.25V37.1875C330.25 37.8125 330.271 38.3958 330.312 38.9375C331.062 39.0625 332.375 39.4583 334.25 40.125V40.5ZM365.312 40.5H353.688V40L358 39.0625C358 38.2292 358.021 36.875 358.062 35C358.062 33.2083 358.062 31.8542 358.062 30.9375C358.062 28.1042 358.042 26.0625 358 24.8125C357.875 20.9375 355.938 19 352.188 19C349.229 19 346.938 20 345.312 22V37.25C345.312 37.4583 345.354 38.0417 345.438 39C346.396 39.2083 347.792 39.5833 349.625 40.125V40.5H338.75V40.125C339.75 39.75 340.812 39.4583 341.938 39.25C341.938 39.0417 341.958 38.7083 342 38.25C342 37.75 342 37.375 342 37.125V23.5C342 22.7083 341.729 21.9792 341.188 21.3125C340.562 20.6875 339.854 20.375 339.062 20.375V20.0625C341.479 19.3125 343.396 18.0208 344.812 16.1875H345.25V21.375C347.958 18.4583 351.021 17 354.438 17C359.104 17 361.438 19.6042 361.438 24.8125V37.6875C361.438 38.0625 361.479 38.5 361.562 39C362.979 39.375 364.229 39.75 365.312 40.125V40.5ZM395.5 21.6875H390.188C390.438 22.6458 390.562 23.25 390.562 23.5C390.562 26.4167 389.667 28.7083 387.875 30.375C386.083 32.0833 383.729 32.9375 380.812 32.9375C379.812 32.9375 378.792 32.75 377.75 32.375C375.75 34.5833 374.75 35.7292 374.75 35.8125C374.75 36.8958 375.958 37.4375 378.375 37.4375C379.25 37.4375 380.562 37.4167 382.312 37.375C384.021 37.2917 385.292 37.25 386.125 37.25C388.375 37.25 390.25 37.8125 391.75 38.9375C393.375 40.1875 394.188 41.8958 394.188 44.0625C394.188 49.8125 388.917 52.6875 378.375 52.6875C376.417 52.6875 374.583 52.2292 372.875 51.3125C370.792 50.2292 369.75 48.7708 369.75 46.9375C369.75 45.6042 370.542 44.3333 372.125 43.125C373.458 42.25 374.771 41.375 376.062 40.5C375.021 40.375 373.917 39.875 372.75 39C371.583 38.0833 370.938 37.125 370.812 36.125C371.771 35.4167 373.875 34.0833 377.125 32.125C373.625 30.8333 371.875 28.4375 371.875 24.9375C371.875 22.4375 372.833 20.4375 374.75 18.9375C376.5 17.6458 378.646 17 381.188 17C383.896 17 386.5 17.7917 389 19.375H395.5V21.6875ZM386.875 24.5C386.875 22.25 386.5 20.6458 385.75 19.6875C384.833 18.5625 383.292 18 381.125 18C377.458 18 375.625 20.0208 375.625 24.0625C375.625 29.2292 377.521 31.8125 381.312 31.8125C385.021 31.8125 386.875 29.375 386.875 24.5ZM392.062 45.6875C392.062 42.2292 389.5 40.5 384.375 40.5C383.542 40.5 382.25 40.5208 380.5 40.5625C378.75 40.6042 377.458 40.625 376.625 40.625C375.917 41.3333 375.25 42 374.625 42.625C373.667 43.625 373.188 44.3542 373.188 44.8125C373.188 46.8542 374.208 48.3958 376.25 49.4375C377.875 50.2292 379.833 50.625 382.125 50.625C388.75 50.625 392.062 48.9792 392.062 45.6875Z" fill="white"/>
</g>
<defs>
<filter id="filter0_d_92_632" x="0.9375" y="0.9375" width="395.562" height="52.75" filterUnits="userSpaceOnUse" color-interpolation-filters="sRGB">
<feFlood flood-opacity="0" result="BackgroundImageFix"/>
<feColorMatrix in="SourceAlpha" type="matrix" values="0 0 0 0 0 0 0 0 0 0 0 0 0 0 0 0 0 0 127 0" result="hardAlpha"/>
<feOffset dx="1" dy="1"/>
<feComposite in2="hardAlpha" operator="out"/>
<feColorMatrix type="matrix" values="0 0 0 0 0.4875 0 0 0 0 0.393656 0 0 0 0 0.0609375 0 0 0 0.1 0"/>
<feBlend mode="normal" in2="BackgroundImageFix" result="effect1_dropShadow_92_632"/>
<feBlend mode="normal" in="SourceGraphic" in2="effect1_dropShadow_92_632" result="shape"/>
</filter>
</defs>
</svg>
